#!OML:ASF H:\BabyWalks\Project 1\Capture day 1\Session 1\baby.ASF
:FULLY-SPECIFIED
:DEGREES
703
root -30.9327 17.6586 -2.92931 -92.3798 81.949 -85.7918
lowerback 9.86909 1.26891 1.48256
upperback 7.17152 2.11251 -0.224446
thorax 1.98656 1.2534 -1.22458
lowerneck -7.34486 0.221613 5.68653
upperneck 2.40534 -0.3124 4.02869
head 2.01254 0.059948 0.295332
rclavicle 1.76918e-014 3.18055e-015
rhumerus -14.7728 55.1478 -80.5579
rradius 87.877
rwrist -14.6561
rhand -9.56574 -22.5408
rfingers 7.12502
rthumb 16.4018 -51.8673
lclavicle 1.76918e-014 3.18055e-015
lhumerus -17.1332 -53.4927 83.945
lradius 68.0125
lwrist 12.0918
lhand 2.83012 7.64049
lfingers 7.12502
lthumb 28.2982 35.5228
rfemur 14.3853 14.858 30.5146
rtibia 1.43125e-014
rfoot -10.1861 -23.579
rtoes 8.91839
lfemur 0.390368 -12.6089 -5.30091
ltibia 25.3898
lfoot -25.4982 6.10868
ltoes 3.80564
704
root -30.9108 17.6546 -2.93648 -90.974 81.9727 -84.2831
lowerback 9.9578 1.26141 1.53309
upperback 7.30177 2.11606 -0.201747
thorax 2.07621 1.26212 -1.22955
lowerneck -7.27375 0.30499 5.52588
upperneck 2.09119 -0.161919 3.89151
head 1.89676 0.116409 0.283887
rclavicle -2.66371e-014 1.59028e-015
rhumerus -17.5994 54.7874 -82.2801
rradius 86.7612
rwrist -14.6772
rhand -8.92079 -22.738
rfingers 7.12502
rthumb 17.0227 -52.0121
lclavicle -2.66371e-014 1.59028e-015
lhumerus -18.7174 -52.6767 84.27
lradius 67.6311
lwrist 11.6791
lhand 3.13391 7.79148
lfingers 7.12502
lthumb 28.5885 35.6252
rfemur 14.5766 15.0376 30.5335
rtibia 1.74931e-014
rfoot -10.345 -23.5913
rtoes 9.2006
lfemur 0.689386 -12.557 -5.43242
ltibia 25.3497
lfoot -25.5312 6.31969
ltoes 3.07486
705
root -30.8893 17.6507 -2.9435 -89.6291 81.9832 -82.8429
lowerback 10.057 1.2494 1.60146
upperback 7.43349 2.11551 -0.180966
thorax 2.16252 1.26973 -1.24644
lowerneck -7.20456 0.385607 5.36601
upperneck 1.7713 -0.015999 3.75301
head 1.77997 0.171395 0.271584
rclavicle 2.46493e-014 -3.02153e-014
rhumerus -20.3831 54.3244 -83.9168
rradius 85.6383
rwrist -14.6196
rhand -8.2842 -22.9722
rfingers 7.12502
rthumb 17.6354 -52.1924
lclavicle 2.46493e-014 -3.02153e-014
lhumerus -20.3154 -51.8382 84.5367
lradius 67.3131
lwrist 11.2632
lhand 3.46614 7.91075
lfingers 7.12502
lthumb 28.9059 35.6907
rfemur 14.758 15.2078 30.5596
rtibia 3.18055e-014
rfoot -10.4832 -23.6058
rtoes 9.43549
lfemur 0.970022 -12.4902 -5.54538
ltibia 25.3154
lfoot -25.5707 6.49896
ltoes 2.40553
706
root -30.868 17.6471 -2.95033 -88.3693 81.9855 -81.4999
lowerback 10.1564 1.23347 1.67788
upperback 7.56896 2.1108 -0.159684
thorax 2.25293 1.27591 -1.26689
lowerneck -7.13898 0.463263 5.2093
upperneck 1.44158 0.125129 3.60636
head 1.66118 0.224522 0.255868
rclavicle 1.90833e-014 7.95139e-016
rhumerus -23.1134 53.7649 -85.4424
rradius 84.5565
rwrist -14.4029
rhand -7.61981 -23.1913
rfingers 7.12502
rthumb 18.2746 -52.3529
lclavicle 1.90833e-014 7.95139e-016
lhumerus -21.9408 -50.9794 84.7494
lradius 67.1057
lwrist 10.8869
lhand 3.8231 7.96921
lfingers 7.12502
lthumb 29.2468 35.6903
rfemur 14.9239 15.3661 30.5873
rtibia 1.11319e-014
rfoot -10.5985 -23.6236
rtoes 9.62326
lfemur 1.23064 -12.4191 -5.64253
ltibia 25.2831
lfoot -25.6221 6.6424
ltoes 1.87003
707
root -30.8469 17.6439 -2.95687 -87.1847 81.9818 -80.2467
lowerback 10.268 1.21367 1.76923
upperback 7.69828 2.10236 -0.145371
thorax 2.3312 1.28092 -1.30311
lowerneck -7.08329 0.537195 5.05647
upperneck 1.11497 0.259133 3.46036
head 1.54571 0.275393 0.239396
rclavicle 2.0276e-014 2.38542e-014
rhumerus -25.8302 53.1374 -86.8909
rradius 83.5884
rwrist -14.0808
rhand -7.01723 -23.4157
rfingers 7.12502
rthumb 18.8543 -52.522
lclavicle 2.0276e-014 2.38542e-014
lhumerus -23.6253 -50.1191 84.9179
lradius 67.0644
lwrist 10.586
lhand 4.30764 8.09468
lfingers 7.12502
lthumb 29.7094 35.7342
rfemur 15.072 15.5145 30.615
rtibia -3.18055e-015
rfoot -10.6898 -23.6454
rtoes 9.74911
lfemur 1.47277 -12.343 -5.72371
ltibia 25.2453
lfoot -25.6856 6.74611
ltoes 1.51277
708
root -30.826 17.6409 -2.96289 -86.0165 81.9785 -79.022
lowerback 10.3629 1.2029 1.84419
upperback 7.83827 2.10503 -0.126106
thorax 2.42955 1.29141 -1.32507
lowerneck -7.03198 0.602941 4.91551
upperneck 0.770078 0.381245 3.30044
head 1.42565 0.320626 0.216064
rclavicle -1.09332e-014 2.3059e-014
rhumerus -28.4953 52.4349 -88.2039
rradius 82.7662
rwrist -13.6252
rhand -6.48418 -23.5924
rfingers 7.12502
rthumb 19.3669 -52.648
lclavicle -1.09332e-014 2.3059e-014
lhumerus -25.3503 -49.2737 85.0453
lradius 67.2233
lwrist 10.3818
lhand 4.88445 8.23976
lfingers 7.12502
lthumb 30.2598 35.7797
rfemur 15.2062 15.6605 30.6377
rtibia -1.74931e-014
rfoot -10.7548 -23.6696
rtoes 9.80616
lfemur 1.70393 -12.2539 -5.79682
ltibia 25.1983
lfoot -25.7573 6.81015
ltoes 1.27134
709
root -30.8049 17.638 -2.96858 -84.8941 81.9815 -77.854
lowerback 10.4493 1.19772 1.90302
upperback 7.9808 2.11401 -0.106241
thorax 2.53499 1.30469 -1.33747
lowerneck -6.98139 0.661628 4.78607
upperneck 0.414812 0.492683 3.13034
head 1.30301 0.361151 0.187248
rclavicle 2.82274e-014 -1.90833e-014
rhumerus -31.1383 51.6764 -89.4054
rradius 82.1305
rwrist -13.0728
rhand -5.9712 -23.7059
rfingers 7.12502
rthumb 19.86 -52.7112
lclavicle 2.82274e-014 -1.90833e-014
lhumerus -27.1481 -48.4578 85.1548
lradius 67.6015
lwrist 10.2766
lhand 5.52718 8.3981
lfingers 7.12502
lthumb 30.8727 35.8238
rfemur 15.3283 15.7999 30.649
rtibia 4.77083e-015
rfoot -10.8012 -23.6978
rtoes 9.81181
lfemur 1.9258 -12.1632 -5.87088
ltibia 25.1391
lfoot -25.8277 6.84783
ltoes 1.10943
710
root -30.7836 17.6355 -2.97392 -83.8254 81.9926 -76.7499
lowerback 10.5524 1.19009 1.9559
upperback 8.1064 2.119 -0.0946584
thorax 2.61367 1.31528 -1.35575
lowerneck -6.9237 0.718098 4.66141
upperneck 0.0670768 0.599753 2.96192
head 1.18222 0.400704 0.158027
rclavicle -1.70955e-014 -8.74653e-015
rhumerus -33.8237 50.9034 -90.5684
rradius 81.7041
rwrist -12.4986
rhand -5.56134 -23.778
rfingers 7.12502
rthumb 20.254 -52.742
lclavicle -1.70955e-014 -8.74653e-015
lhumerus -29.0699 -47.6666 85.2676
lradius 68.2416
lwrist 10.344
lhand 6.30548 8.67463
lfingers 7.12502
lthumb 31.6144 35.9572
rfemur 14.8033 15.9758 30.5119
rtibia 1.257
rfoot -11.5485 -23.6363
rtoes 9.7802
lfemur 2.13961 -12.0727 -5.94879
ltibia 25.0683
lfoot -25.8917 6.86527
ltoes 1.00135
711
root -30.7619 17.6333 -2.97896 -82.8329 82.0141 -75.7372
lowerback 10.66 1.18261 1.99422
upperback 8.21228 2.12215 -0.0863063
thorax 2.66864 1.32354 -1.36969
lowerneck -6.8574 0.770256 4.54333
upperneck -0.267123 0.699297 2.79272
head 1.06491 0.437688 0.127251
rclavicle 1.21259e-014 3.18055e-014
rhumerus -36.5258 50.1 -91.6657
rradius 81.4956
rwrist -12.0427
rhand -5.1423 -23.8029
rfingers 7.12502
rthumb 20.6567 -52.7237
lclavicle 1.21259e-014 3.18055e-014
lhumerus -31.1294 -46.9284 85.4166
lradius 69.108
lwrist 10.5139
lhand 7.03543 8.89965
lfingers 7.12502
lthumb 32.3094 36.043
rfemur 14.4146 16.129 30.3891
rtibia 2.21332
rfoot -12.1252 -23.5899
rtoes 9.74129
lfemur 2.33419 -11.9776 -6.0327
ltibia 24.9866
lfoot -25.9532 6.86752
ltoes 0.952138
712
root -30.7395 17.6313 -2.98361 -81.9248 82.0424 -74.8239
lowerback 10.7571 1.1763 2.01279
upperback 8.3025 2.12401 -0.0742306
thorax 2.71186 1.32944 -1.36867
lowerneck -6.78061 0.818339 4.4338
upperneck -0.587874 0.791588 2.61642
head 0.95075 0.471993 0.0926586
rclavicle 4.57205e-015 2.46493e-014
rhumerus -39.2389 49.2852 -92.6976
rradius 81.4952
rwrist -11.7361
rhand -4.68119 -23.8275
rfingers 7.12502
rthumb 21.0997 -52.6995
lclavicle 4.57205e-015 2.46493e-014
lhumerus -33.3076 -46.2491 85.612
lradius 70.1755
lwrist 10.8182
lhand 7.69486 9.05335
lfingers 7.12502
lthumb 32.9369 36.0669
rfemur 14.1504 16.2594 30.2834
rtibia 2.89726
rfoot -12.5502 -23.5586
rtoes 9.69348
lfemur 2.50605 -11.8734 -6.1181
ltibia 24.8995
lfoot -26.0028 6.86205
ltoes 0.885653
713
root -30.7162 17.63 -2.98783 -81.0823 82.0822 -73.9953
lowerback 10.8459 1.16973 2.00813
upperback 8.36861 2.12181 -0.0599955
thorax 2.73294 1.33099 -1.3524
lowerneck -6.70393 0.862626 4.32616
upperneck -0.874726 0.875847 2.43701
head 0.847935 0.503713 0.0566554
rclavicle 1.98785e-016 -7.95139e-015
rhumerus -41.9636 48.4747 -93.6848
rradius 81.6775
rwrist -11.6313
rhand -4.21772 -23.8853
rfingers 7.12502
rthumb 21.5449 -52.707
lclavicle 1.98785e-016 -7.95139e-015
lhumerus -35.6048 -45.618 85.8685
lradius 71.4314
lwrist 11.3182
lhand 8.281 9.2416
lfingers 7.12502
lthumb 33.4942 36.1362
rfemur 13.9384 16.374 30.1748
rtibia 3.44452
rfoot -12.8998 -23.532
rtoes 9.63005
lfemur 2.65631 -11.79 -6.21452
ltibia 24.8115
lfoot -26.0468 6.87098
ltoes 0.814027
714
root -30.6921 17.6293 -2.99152 -80.3235 82.1268 -73.274
lowerback 10.914 1.16393 1.982
upperback 8.40959 2.11646 -0.0390589
thorax 2.73736 1.32846 -1.31687
lowerneck -6.62519 0.903609 4.22737
upperneck -1.12405 0.952288 2.24828
head 0.757192 0.532737 0.0161898
rclavicle 1.0138e-014 0
rhumerus -44.6811 47.6611 -94.6259
rradius 82.015
rwrist -11.7975
rhand -3.867 -24.0276
rfingers 7.12502
rthumb 21.8817 -52.8103
lclavicle 1.0138e-014 0
lhumerus -38.0028 -45.0404 86.2004
lradius 72.818
lwrist 12.011
lhand 8.56466 9.30014
lfingers 7.12502
lthumb 33.7637 36.136
rfemur 13.7603 16.4719 30.0678
rtibia 3.88275
rfoot -13.1894 -23.506
rtoes 9.55066
lfemur 2.77584 -11.728 -6.31229
ltibia 24.7282
lfoot -26.0881 6.89259
ltoes 0.751817
715
root -30.6672 17.6291 -2.99468 -79.642 82.1741 -72.6571
lowerback 10.9552 1.15864 1.93862
upperback 8.42393 2.10754 -0.0119517
thorax 2.72709 1.32178 -1.26478
lowerneck -6.55117 0.941334 4.13508
upperneck -1.32758 1.02058 2.05445
head 0.682106 0.559034 -0.0270072
rclavicle 5.96354e-016 -1.66979e-014
rhumerus -47.3571 46.8341 -95.5152
rradius 82.4691
rwrist -12.255
rhand -3.75654 -24.2639
rfingers 7.12502
rthumb 21.9877 -53.0342
lclavicle 5.96354e-016 -1.66979e-014
lhumerus -40.4621 -44.5035 86.6063
lradius 74.2664
lwrist 12.8917
lhand 8.61294 9.3103
lfingers 7.12502
lthumb 33.8096 36.1361
rfemur 13.6075 16.555 29.9628
rtibia 4.22139
rfoot -13.4239 -23.4806
rtoes 9.45502
lfemur 2.85802 -11.6804 -6.40807
ltibia 24.655
lfoot -26.1258 6.93003
ltoes 0.675887
716
root -30.6415 17.6298 -2.99728 -79.0432 82.2227 -72.1519
lowerback 10.9783 1.15046 1.89059
upperback 8.40284 2.09137 0.0138232
thorax 2.68864 1.30948 -1.21117
lowerneck -6.48113 0.977514 4.05323
upperneck -1.47816 1.08272 1.8591
head 0.624673 0.583584 -0.072432
rclavicle 7.15625e-015 2.38542e-015
rhumerus -49.9592 45.9606 -96.3461
rradius 82.9984
rwrist -12.9338
rhand -3.93762 -24.5122
rfingers 7.12502
rthumb 21.8139 -53.3028
lclavicle 7.15625e-015 2.38542e-015
lhumerus -42.9727 -43.989 87.0775
lradius 75.7361
lwrist 13.9578
lhand 8.39627 9.19532
lfingers 7.12502
lthumb 33.6037 36.0662
rfemur 13.472 16.6232 29.8613
rtibia 4.46909
rfoot -13.6057 -23.4577
rtoes 9.34473
lfemur 2.89797 -11.6445 -6.49772
ltibia 24.5974
lfoot -26.156 6.98547
ltoes 0.566195
717
root -30.6155 17.631 -2.99929 -78.5308 82.2659 -71.761
lowerback 10.9606 1.14468 1.83428
upperback 8.36222 2.07489 0.048667
thorax 2.65099 1.2954 -1.14266
lowerneck -6.42234 1.01004 3.98162
upperneck -1.5876 1.13637 1.65256
head 0.582342 0.604771 -0.12308
rclavicle 1.41137e-014 -2.78299e-014
rhumerus -52.3933 45.0047 -97.0303
rradius 83.5685
rwrist -13.7049
rhand -4.32345 -24.7174
rfingers 7.12502
rthumb 21.4433 -53.5506
lclavicle 1.41137e-014 -2.78299e-014
lhumerus -45.4556 -43.4885 87.5978
lradius 77.1715
lwrist 15.171
lhand 8.14662 9.18211
lfingers 7.12502
lthumb 33.3664 36.1043
rfemur 13.3467 16.678 29.7693
rtibia 4.64068
rfoot -13.7386 -23.4373
rtoes 9.2104
lfemur 2.8951 -11.6134 -6.57219
ltibia 24.5578
lfoot -26.195 7.04769
ltoes 0.492512
